<?xml version="1.0"?><svg width="1600" height="1200" xmlns="http://www.w3.org/2000/svg">
 <title>plate</title>

 <metadata id="metadata7">image/svg+xml</metadata>
 <g>
  <title>Layer 1</title>
  <g id="svg_1">
   <path fill="#ffffff" fill-rule="evenodd" stroke-width="0.814146px" id="path3150" d="m0.422248,346.908081c0,77.768555 76.722978,369.353333 95.964852,436.996338c14.218369,49.980286 35.888351,101.408875 61.071106,145.666077c33.222458,58.392395 111.964462,78.261597 174.480789,91.999512c90.349731,19.847229 195.000397,22.997864 287.895416,22.997864c87.443909,0 183.934509,-24.862244 267.814026,-43.29126c20.538635,-4.510803 74.19458,-10.221313 94.552002,-15.33197c79.145752,-19.872498 119.674805,-37.695313 204.702637,-56.374146c57.820801,-12.701355 118.310669,-45.391235 165.761597,-76.667542c58.810669,-38.76178 104.942383,-87.182617 148.306641,-137.998474c8.727905,-10.221313 17.450195,-20.442566 26.174316,-30.663879c33.465576,-39.214111 52.345459,-104.911194 52.345459,-153.335083c0,-58.880829 8.843262,-103.233856 -17.448608,-160.996399c-25.88269,-56.865723 -82.856689,-95.812805 -130.863159,-137.999985c-57.079224,-50.160965 -100.906982,-101.597244 -168.393066,-131.250298c-68.822998,-30.240295 -168.411011,-31.442902 -244.278076,-53.666195c-95.624817,-28.011332 -211.207336,-37.414495 -311.43158,-37.414495c-75.867188,0 -152.107117,0 -226.825989,0c-77.81958,0 -69.695221,10.81795 -144.233063,23.918424c-52.619537,9.247677 -335.5953,223.012463 -335.5953,313.41151l0,0l0,0l0,0z"/>
   <path fill="#ffffff" stroke="#000000" stroke-width="11.3" stroke-linecap="round" stroke-miterlimit="0" stroke-dashoffset="0" d="m1210.394287,816.962097a520.591919,463.24469 0 1 1 -123.080688,-697.448952" id="path1307"/>
   <path fill="#ffffff" stroke="#000000" stroke-width="11.29991" stroke-linecap="round" stroke-miterlimit="0" stroke-dashoffset="0" d="m519.685364,285.189148a387.618286,344.523987 0 1 1 298.368347,564.535156" id="path2182"/>
   <path fill="#ffffff" fill-opacity="0.75" fill-rule="evenodd" stroke="#000000" stroke-width="5.883" stroke-miterlimit="4" id="path4031" d="m1288.368652,305.91394l1.536743,-118.057266c0,0 -2.305176,-23.612518 19.222168,-23.612518c20.758911,0 16.913696,23.612518 16.913696,23.612518l-0.768433,118.057266c0,0 -2.308228,11.806244 15.377319,12.500732c17.681885,0.694489 14.605591,-13.195221 14.605591,-13.195221l-0.768555,-115.973801c0,0 -1.536743,-25.001495 16.916992,-25.001495c18.450928,0 14.605469,25.696014 14.605469,25.696014l0,118.751724c0,0 5.767944,10.24295 18.453857,9.722778c12.686279,-0.522888 14.798828,-9.897064 15.184204,-9.636993l1.729858,-118.143066c0,0 0,-25.00145 16.145264,-25.695923c16.14563,-0.694534 16.14563,25.695923 16.14563,25.695923l-0.768311,125.002106c0,0 8.609131,100.987366 -43.955933,107.779419c-46.525757,6.011658 18.357422,359.159058 1.009644,369.667603c-16.410645,9.940063 -20.517822,11.688232 -35.894653,12.382813c-15.377319,0.694397 -30.420044,-4.284973 -40.243408,-14.345703c-18.098145,-18.53656 39.423584,-365.283417 4.634399,-369.766815c-45.329468,-5.845367 -50.849976,-116.134583 -50.081543,-115.440094l0,0z"/>
   <path fill="#ffffff" fill-opacity="0.75" fill-rule="evenodd" stroke="#000000" stroke-width="5.883" stroke-miterlimit="4" id="path8399" d="m92.288254,231.228531c20.758919,-35.418762 63.045456,-41.218628 81.496063,-41.218628c18.453766,0 68.161987,3.949692 82.26738,43.996567c14.286316,40.556396 7.840698,225.989471 -44.724136,232.781433c-46.526031,6.011841 18.357407,359.15918 1.009506,369.667603c-16.410583,9.940063 -20.517776,11.688354 -35.894867,12.382874c-15.37706,0.69458 -28.897964,-1.576843 -38.721497,-11.63739c-18.099136,-18.53656 37.901779,-363.926666 3.112778,-368.412689c-45.330666,-5.845428 -69.303932,-202.143616 -48.545227,-237.559769l0,0z"/>
   <path fill="#ffffff" stroke="#000000" stroke-width="5.883" stroke-linecap="round" stroke-miterlimit="4" stroke-dashoffset="0" d="m176.180618,234.140442a50.985935,89.470161 0 1 1 2.721161,178.268158" id="path8401"/>
  </g>
 </g>
</svg>